<svg xmlns="http://www.w3.org/2000/svg" width="10.722" height="12.144" viewBox="0 0 10.722 12.144">
  <path id="address-book" d="M10.434,3.8a.287.287,0,0,0,.287-.285V2.562a.287.287,0,0,0-.287-.285H9.956V1.139A1.144,1.144,0,0,0,8.807,0H1.149A1.144,1.144,0,0,0,0,1.139v9.867a1.144,1.144,0,0,0,1.149,1.139H8.807a1.144,1.144,0,0,0,1.149-1.139V9.867h.479a.287.287,0,0,0,.287-.285V8.634a.287.287,0,0,0-.287-.285H9.956V6.831h.479a.287.287,0,0,0,.287-.285V5.6a.287.287,0,0,0-.287-.285H9.956V3.8ZM8.807,11.006H1.149V1.139H8.807ZM4.978,6.072A1.518,1.518,0,1,0,3.446,4.554,1.526,1.526,0,0,0,4.978,6.072ZM2.834,9.108H7.122a.5.5,0,0,0,.536-.455V8.2A1.5,1.5,0,0,0,6.05,6.831a5.824,5.824,0,0,1-1.072.19,5.74,5.74,0,0,1-1.072-.19A1.5,1.5,0,0,0,2.3,8.2v.455A.5.5,0,0,0,2.834,9.108Z" fill="#363338"/>
</svg>
