<svg id="twotone-closed_caption-24px" xmlns="http://www.w3.org/2000/svg" width="15.186" height="15.186" viewBox="0 0 15.186 15.186">
  <path id="Path_5265" data-name="Path 5265" d="M0,0H15.186V15.186H0Z" fill="none"/>
  <path id="Path_5266" data-name="Path 5266" d="M8.48,15.53,7.24,14.037,5.5,16.27h6.96l-2.24-2.98Z" transform="translate(-2.02 -4.881)" fill="#363338"/>
  <path id="Path_5267" data-name="Path 5267" d="M11.909,13.593H4.949l1.74-2.234,1.24,1.493,1.74-2.24Zm.316-6.96h-1.9V6H4v8.858h8.858V8.531h-.633Z" transform="translate(-1.469 -2.204)" fill="#363338" opacity="0.3"/>
  <path id="Path_5268" data-name="Path 5268" d="M13.389,2.9V1H12.124V2.9h-1.9V4.164h1.9V6.056h1.265V4.164h1.9V2.9ZM12.124,13.022H3.265V4.164H9.593V2.9H3.265A1.269,1.269,0,0,0,2,4.164v8.858a1.269,1.269,0,0,0,1.265,1.265h8.858a1.269,1.269,0,0,0,1.265-1.265V6.695H12.124Z" transform="translate(-0.735 -0.367)" fill="#363338"/>
</svg>
