<svg xmlns="http://www.w3.org/2000/svg" width="40.982" height="40.981" viewBox="0 0 40.982 40.981">
  <path id="Path_5272" data-name="Path 5272" d="M20.491,3.643a62.829,62.829,0,0,1,8.2.228,10.56,10.56,0,0,1,3.87.683,8,8,0,0,1,3.87,3.87,10.56,10.56,0,0,1,.683,3.87c0,2.049.228,2.732.228,8.2a62.829,62.829,0,0,1-.228,8.2,10.56,10.56,0,0,1-.683,3.87,8,8,0,0,1-3.87,3.87,10.56,10.56,0,0,1-3.87.683c-2.049,0-2.732.228-8.2.228a62.829,62.829,0,0,1-8.2-.228,10.56,10.56,0,0,1-3.87-.683,8,8,0,0,1-3.87-3.87,10.56,10.56,0,0,1-.683-3.87c0-2.049-.228-2.732-.228-8.2a62.829,62.829,0,0,1,.228-8.2,10.56,10.56,0,0,1,.683-3.87A8.177,8.177,0,0,1,6.147,6.147,3.849,3.849,0,0,1,8.424,4.554a10.56,10.56,0,0,1,3.87-.683,62.829,62.829,0,0,1,8.2-.228m0-3.643a67.272,67.272,0,0,0-8.424.228,14.056,14.056,0,0,0-5.009.911A8.913,8.913,0,0,0,3.415,3.415,8.913,8.913,0,0,0,1.138,7.058a10.374,10.374,0,0,0-.911,5.009A67.272,67.272,0,0,0,0,20.491a67.272,67.272,0,0,0,.228,8.424,14.056,14.056,0,0,0,.911,5.009,8.913,8.913,0,0,0,2.277,3.643,8.913,8.913,0,0,0,3.643,2.277,14.056,14.056,0,0,0,5.009.911,67.273,67.273,0,0,0,8.424.228,67.273,67.273,0,0,0,8.424-.228,14.056,14.056,0,0,0,5.009-.911,9.552,9.552,0,0,0,5.92-5.92,14.056,14.056,0,0,0,.911-5.009c0-2.277.228-2.96.228-8.424a67.273,67.273,0,0,0-.228-8.424,14.056,14.056,0,0,0-.911-5.009,8.913,8.913,0,0,0-2.277-3.643,8.913,8.913,0,0,0-3.643-2.277A14.056,14.056,0,0,0,28.915.228,67.272,67.272,0,0,0,20.491,0m0,10.018A10.3,10.3,0,0,0,10.018,20.491,10.473,10.473,0,1,0,20.491,10.018m0,17.3a6.708,6.708,0,0,1-6.83-6.83,6.708,6.708,0,0,1,6.83-6.83,6.708,6.708,0,0,1,6.83,6.83,6.708,6.708,0,0,1-6.83,6.83M31.419,7.058a2.5,2.5,0,1,0,2.5,2.5,2.527,2.527,0,0,0-2.5-2.5" fill="#f7f7f2" fill-rule="evenodd"/>
</svg>
