<svg xmlns="http://www.w3.org/2000/svg" width="84.756" height="56.28" viewBox="0 0 84.756 56.28">
  <g id="Layer_1" data-name="Layer 1" transform="translate(0.25 0.411)">
    <circle id="Ellipse_10" data-name="Ellipse 10" cx="20" cy="20" r="20" transform="translate(0 -0.161)" fill="#f49711" stroke="#000" stroke-linecap="round" stroke-miterlimit="10" stroke-width="0.5"/>
    <path id="Path_61" data-name="Path 61" d="M1.22,26.856l1.654-1.642A7.08,7.08,0,0,0,7.38,26.972a3.866,3.866,0,0,0,2.655-.908,3.051,3.051,0,0,0,1.036-2.329,4.658,4.658,0,0,0-1.956-3.179L7.45,19.042a16.791,16.791,0,0,1-2.329-2.329,3.156,3.156,0,0,1-.442-1.77,4.891,4.891,0,0,1,1.875-3.819A6.626,6.626,0,0,1,11.048,9.54a9.8,9.8,0,0,1,3.854.978L14.308,13.5h-.745a5.088,5.088,0,0,0,0-.512,2.166,2.166,0,0,0-.9-1.817,3.854,3.854,0,0,0-2.329-.687,3.761,3.761,0,0,0-2.573.908,2.853,2.853,0,0,0-1.048,2.247,2.783,2.783,0,0,0,.524,1.642,14.73,14.73,0,0,0,2.2,2.166l1.4,1.164c1.56,1.339,2.329,2.585,2.329,3.75a4.8,4.8,0,0,1-2.212,4.017,8.512,8.512,0,0,1-5.217,1.63A9.991,9.991,0,0,1,1.22,26.856Z" transform="translate(0.129 1.218)"/>
    <path id="Path_62" data-name="Path 62" d="M9,26.415l1.7-1.747a3.7,3.7,0,0,0,3.33,1.968A3.237,3.237,0,0,0,16.5,25.471a6.335,6.335,0,0,0,1.467-3.132l2.247-11.26a7.592,7.592,0,0,0-.838-.093,4.3,4.3,0,0,0-3.319,1.4,4.867,4.867,0,0,0-1.3,3.493l-2.329,1.164a6.824,6.824,0,0,1,2.643-5.147,10.34,10.34,0,0,1,6.439-1.84h.955a68.213,68.213,0,0,1,3.226,12.46L33.453,9.961l2.538-.291-1.06,4.9c-.291,1.316-.489,3.039-.838,4.658-.07.3-.186.838-.349,1.642-.058.338-.175.885-.291,1.5s-.291,1.584-.454,2.667c-.14.664-.338,1.642-.606,2.806,0,0-.326,1.444-.687,2.923-1.164,4.658-6.8,23.871-6.847,23.859h0l8.07-42.013L24.778,25.6l-1.223.2v-.349a38.427,38.427,0,0,0-2.259-11.5l-.978,4.832q-1.782,8.966-7.744,8.955A5.613,5.613,0,0,1,9,26.415Z" transform="translate(1.408 1.239)"/>
    <path id="Path_63" data-name="Path 63" d="M45.62,20.389H45.4a15.825,15.825,0,0,1-3.214,4.844,5.275,5.275,0,0,1-3.493,1.886c-1.665,0-2.492-1.048-2.492-3.132a10.48,10.48,0,0,1,2.748-6.754,8.687,8.687,0,0,1,6.987-3.423,29.207,29.207,0,0,1,3.493.14l-.85,3.493-1.164,5.822a13.181,13.181,0,0,0-.268,1.782c0,.489.233.745.7.745.792,0,1.968-.873,3.493-2.608l-.21,1.164q-2.6,2.771-4.658,2.783c-1.164,0-1.723-.594-1.723-1.793a11.389,11.389,0,0,1,.291-1.991Zm.955-4.739a7.254,7.254,0,0,0-2.958-.664c-1.432,0-2.585.908-3.493,2.725a13.973,13.973,0,0,0-1.514,5.822c0,1.246.361,1.863,1.095,1.863s1.654-.71,2.923-2.143a23.976,23.976,0,0,0,3.365-4.879Z" transform="translate(5.881 1.92)"/>
    <path id="Path_64" data-name="Path 64" d="M51.371,26.978l.873-3.61,1.164-5.822a7.837,7.837,0,0,0,.2-1.514c0-.675-.233-1.013-.71-1.013-.838,0-2.026.885-3.586,2.678l.21-1.06q2.736-2.946,4.751-2.946,1.712,0,1.712,1.956a9.839,9.839,0,0,1-.245,1.9L55.167,20.4h.151a17.012,17.012,0,0,1,3.33-4.844,5.45,5.45,0,0,1,3.493-1.875,2.934,2.934,0,0,1,1.479.373L62.049,16.2a2.247,2.247,0,0,0-1.164-.466q-2.329,0-6.148,6.777l-.85,4.355Z" transform="translate(8.037 1.899)"/>
    <path id="Path_65" data-name="Path 65" d="M64.953,15.372H62.24l.827-.885h2.061l.675-3.354,2.445-.594-.78,3.947H71.94l-.978,1.048a23.836,23.836,0,0,0-2.713-.163h-.955l-1.619,8.151a10.666,10.666,0,0,0-.221,1.723c0,.629.279.943.827.943a6.335,6.335,0,0,0,3.493-1.9l-.21,1.083A6.5,6.5,0,0,1,65.151,27.7c-1.351,0-2.014-.745-2.014-2.236a11.388,11.388,0,0,1,.256-2.108Z" transform="translate(10.163 1.382)"/>
    <text id="anager" transform="translate(38.506 42.574)" font-size="15" font-family="SegoeUI-Italic, Segoe UI" font-style="italic"><tspan x="0" y="0">anager</tspan></text>
  </g>
</svg>
