
<svg xmlns="http://www.w3.org/2000/svg" width="18.822" height="15.74" viewBox="0 0 18.822 15.74">
  <path id="tasks" d="M7.622,35.619H18.208a.587.587,0,0,0,.588-.583V33.579A.587.587,0,0,0,18.208,33H7.622a.587.587,0,0,0-.588.583v1.457A.587.587,0,0,0,7.622,35.619Zm0,5.829H18.208a.587.587,0,0,0,.588-.583V39.408a.587.587,0,0,0-.588-.583H7.622a.587.587,0,0,0-.588.583v1.457A.587.587,0,0,0,7.622,41.448Zm0,5.829H18.208a.587.587,0,0,0,.588-.583V45.237a.587.587,0,0,0-.588-.583H7.622a.587.587,0,0,0-.588.583v1.457A.587.587,0,0,0,7.622,47.277Zm-5.293-3.06a1.749,1.749,0,1,0,1.765,1.749,1.757,1.757,0,0,0-1.765-1.749Zm3.4-10.893L3.074,35.954l-.573.568a.471.471,0,0,1-.647,0L.1,34.8a.435.435,0,0,1,0-.619L.681,33.6a.444.444,0,0,1,.625,0l.835.805L4.483,32.1a.444.444,0,0,1,.625,0l.625.6a.439.439,0,0,1,0,.619Zm0,5.814L3.074,41.769l-.577.572a.471.471,0,0,1-.647,0L.1,40.61a.435.435,0,0,1,0-.619l.577-.572a.444.444,0,0,1,.625,0l.835.805L4.483,37.9a.444.444,0,0,1,.625,0l.625.619a.434.434,0,0,1,0,.616Z" transform="translate(0.025 -31.974)" fill="#363338"/>
</svg>
