<svg xmlns="http://www.w3.org/2000/svg" width="31.975" height="23.534" viewBox="0 0 31.975 23.534">
  <path id="_4797444931547464096" data-name="4797444931547464096" d="M0,30.89V28.826C0,28.37.511,28,1.142,28H30.833c.631,0,1.142.37,1.142.826V30.89c0,.456-.511.826-1.142.826H1.142C.511,31.716,0,31.346,0,30.89Zm1.142,7.432H30.833c.631,0,1.142-.37,1.142-.826V35.432c0-.456-.511-.826-1.142-.826H1.142c-.631,0-1.142.37-1.142.826V37.5C0,37.952.511,38.322,1.142,38.322Zm0,13.212H30.833c.631,0,1.142-.37,1.142-.826V48.644c0-.456-.511-.826-1.142-.826H1.142c-.631,0-1.142.37-1.142.826v2.064C0,51.165.511,51.534,1.142,51.534Zm0-6.606H30.833c.631,0,1.142-.37,1.142-.826V42.038c0-.456-.511-.826-1.142-.826H1.142c-.631,0-1.142.37-1.142.826V44.1C0,44.558.511,44.928,1.142,44.928Z" transform="translate(0 -28)" fill="#f7f7f2"/>
</svg>
